<mxfile host="65bd71144e">
    <diagram id="lZ9maotur2j684KJy_sy" name="Page-1">
        <mxGraphModel dx="653" dy="498" grid="1" gridSize="10" guides="1" tooltips="1" connect="1" arrows="1" fold="1" page="1" pageScale="1" pageWidth="850" pageHeight="1100" math="0" shadow="0">
            <root>
                <mxCell id="0"/>
                <mxCell id="1" parent="0"/>
                <mxCell id="fncmsdUUiz8E2BPmiftU-1" value="&lt;h1&gt;Add Or Remove From Wish List&lt;/h1&gt;&lt;p&gt;1: the first bloc here when i click on the fav button at any screen (main or wish list )&lt;/p&gt;&lt;p&gt;&lt;br&gt;&lt;/p&gt;&lt;p&gt;2: each Product has its own bloc&amp;nbsp;&lt;/p&gt;" style="text;html=1;strokeColor=none;fillColor=none;spacing=5;spacingTop=-20;whiteSpace=wrap;overflow=hidden;rounded=0;" parent="1" vertex="1">
                    <mxGeometry x="10" y="20" width="220" height="190" as="geometry"/>
                </mxCell>
                <mxCell id="fncmsdUUiz8E2BPmiftU-11" value="" style="edgeStyle=orthogonalEdgeStyle;rounded=0;orthogonalLoop=1;jettySize=auto;html=1;" parent="1" source="fncmsdUUiz8E2BPmiftU-2" target="fncmsdUUiz8E2BPmiftU-8" edge="1">
                    <mxGeometry relative="1" as="geometry"/>
                </mxCell>
                <mxCell id="fncmsdUUiz8E2BPmiftU-2" value="clisk add to wishlist fav button" style="ellipse;whiteSpace=wrap;html=1;" parent="1" vertex="1">
                    <mxGeometry x="640" y="20" width="120" height="80" as="geometry"/>
                </mxCell>
                <mxCell id="fncmsdUUiz8E2BPmiftU-10" value="" style="edgeStyle=orthogonalEdgeStyle;rounded=0;orthogonalLoop=1;jettySize=auto;html=1;" parent="1" source="fncmsdUUiz8E2BPmiftU-3" target="fncmsdUUiz8E2BPmiftU-8" edge="1">
                    <mxGeometry relative="1" as="geometry"/>
                </mxCell>
                <mxCell id="fncmsdUUiz8E2BPmiftU-3" value="add To wish List event" style="rounded=0;whiteSpace=wrap;html=1;" parent="1" vertex="1">
                    <mxGeometry x="250" y="150" width="130" height="60" as="geometry"/>
                </mxCell>
                <mxCell id="fncmsdUUiz8E2BPmiftU-7" style="edgeStyle=orthogonalEdgeStyle;rounded=0;orthogonalLoop=1;jettySize=auto;html=1;entryX=0;entryY=0.5;entryDx=0;entryDy=0;" parent="1" source="fncmsdUUiz8E2BPmiftU-6" target="fncmsdUUiz8E2BPmiftU-2" edge="1">
                    <mxGeometry relative="1" as="geometry"/>
                </mxCell>
                <mxCell id="fncmsdUUiz8E2BPmiftU-6" value="the fav button conatins the BlocProvider.value&amp;nbsp;&lt;br&gt;&lt;br&gt;value consist in the Product Model&amp;nbsp;" style="shape=card;whiteSpace=wrap;html=1;" parent="1" vertex="1">
                    <mxGeometry x="290" y="10" width="160" height="100" as="geometry"/>
                </mxCell>
                <mxCell id="fncmsdUUiz8E2BPmiftU-8" value="&lt;span style=&quot;background-color: rgb(42 , 42 , 42)&quot;&gt;&lt;span style=&quot;font-family: &amp;#34;consolas&amp;#34; , &amp;#34;courier new&amp;#34; , monospace ; font-size: 14px&quot;&gt;context.read&amp;lt;WishlistBloc&amp;gt;()&lt;/span&gt;&lt;br&gt;&lt;/span&gt;&lt;div style=&quot;font-family: &amp;#34;consolas&amp;#34; , &amp;#34;courier new&amp;#34; , monospace ; font-weight: normal ; font-size: 14px ; line-height: 19px&quot;&gt;&lt;div&gt;&lt;span style=&quot;background-color: rgb(42 , 42 , 42)&quot;&gt;&amp;nbsp;.add(AddProductToWishListEvent(product));&lt;/span&gt;&lt;/div&gt;&lt;/div&gt;&lt;span style=&quot;background-color: rgb(255 , 255 , 255)&quot;&gt;&lt;br&gt;&lt;/span&gt;" style="shape=parallelogram;perimeter=parallelogramPerimeter;whiteSpace=wrap;html=1;fixedSize=1;fillColor=#2A2A2A;" parent="1" vertex="1">
                    <mxGeometry x="490" y="140" width="420" height="80" as="geometry"/>
                </mxCell>
                <mxCell id="fncmsdUUiz8E2BPmiftU-18" value="" style="edgeStyle=orthogonalEdgeStyle;rounded=0;orthogonalLoop=1;jettySize=auto;html=1;" parent="1" source="fncmsdUUiz8E2BPmiftU-12" target="fncmsdUUiz8E2BPmiftU-16" edge="1">
                    <mxGeometry relative="1" as="geometry"/>
                </mxCell>
                <mxCell id="fncmsdUUiz8E2BPmiftU-19" style="edgeStyle=orthogonalEdgeStyle;rounded=0;orthogonalLoop=1;jettySize=auto;html=1;" parent="1" source="fncmsdUUiz8E2BPmiftU-12" target="fncmsdUUiz8E2BPmiftU-17" edge="1">
                    <mxGeometry relative="1" as="geometry"/>
                </mxCell>
                <mxCell id="fncmsdUUiz8E2BPmiftU-20" style="edgeStyle=orthogonalEdgeStyle;rounded=0;orthogonalLoop=1;jettySize=auto;html=1;entryX=0.5;entryY=0;entryDx=0;entryDy=0;" parent="1" source="fncmsdUUiz8E2BPmiftU-12" target="fncmsdUUiz8E2BPmiftU-15" edge="1">
                    <mxGeometry relative="1" as="geometry"/>
                </mxCell>
                <mxCell id="fncmsdUUiz8E2BPmiftU-12" value="&lt;div style=&quot;font-family: &amp;#34;consolas&amp;#34; , &amp;#34;courier new&amp;#34; , monospace ; font-size: 14px ; line-height: 19px&quot;&gt;&lt;div&gt;&lt;font style=&quot;background-color: rgb(42 , 42 , 42)&quot; color=&quot;#ffffff&quot;&gt;addWishListIdUseCase(params: WishListParams(product: event.product));&lt;/font&gt;&lt;/div&gt;&lt;/div&gt;" style="shape=parallelogram;perimeter=parallelogramPerimeter;whiteSpace=wrap;html=1;fixedSize=1;" parent="1" vertex="1">
                    <mxGeometry x="490" y="250" width="420" height="80" as="geometry"/>
                </mxCell>
                <mxCell id="fncmsdUUiz8E2BPmiftU-13" value="&lt;span style=&quot;background-color: rgb(42 , 42 , 42)&quot;&gt;For Cache:&lt;br&gt;&amp;nbsp;1-&amp;nbsp;&lt;/span&gt;&lt;span style=&quot;font-family: &amp;#34;consolas&amp;#34; , &amp;#34;courier new&amp;#34; , monospace ; font-size: 14px&quot;&gt;&lt;span style=&quot;background-color: rgb(42 , 42 , 42)&quot;&gt;add Product To WishList&lt;br&gt;2- Update product.iswishlisted&lt;/span&gt;&lt;br&gt;&lt;/span&gt;" style="rounded=0;whiteSpace=wrap;html=1;" parent="1" vertex="1">
                    <mxGeometry x="880" y="480" width="250" height="60" as="geometry"/>
                </mxCell>
                <mxCell id="fncmsdUUiz8E2BPmiftU-27" style="edgeStyle=orthogonalEdgeStyle;rounded=0;orthogonalLoop=1;jettySize=auto;html=1;exitX=0;exitY=0.5;exitDx=0;exitDy=0;entryX=0.5;entryY=0;entryDx=0;entryDy=0;" parent="1" source="fncmsdUUiz8E2BPmiftU-15" target="fncmsdUUiz8E2BPmiftU-24" edge="1">
                    <mxGeometry relative="1" as="geometry">
                        <mxPoint x="610" y="620" as="targetPoint"/>
                        <Array as="points">
                            <mxPoint x="840" y="430"/>
                            <mxPoint x="840" y="620"/>
                            <mxPoint x="610" y="620"/>
                        </Array>
                    </mxGeometry>
                </mxCell>
                <mxCell id="fncmsdUUiz8E2BPmiftU-15" value="&lt;div style=&quot;font-family: &amp;#34;consolas&amp;#34; , &amp;#34;courier new&amp;#34; , monospace ; font-size: 14px ; line-height: 19px&quot;&gt;&lt;div&gt;&lt;span style=&quot;background-color: rgb(42 , 42 , 42)&quot;&gt;&amp;nbsp;final isCachedValueUpedated =&amp;nbsp; &amp;nbsp;_cacheDataSource.addToWishList(value: product);&lt;/span&gt;&lt;/div&gt;&lt;/div&gt;" style="rounded=0;whiteSpace=wrap;html=1;" parent="1" vertex="1">
                    <mxGeometry x="880" y="390" width="290" height="80" as="geometry"/>
                </mxCell>
                <mxCell id="fncmsdUUiz8E2BPmiftU-26" style="edgeStyle=orthogonalEdgeStyle;rounded=0;orthogonalLoop=1;jettySize=auto;html=1;entryX=0.5;entryY=0;entryDx=0;entryDy=0;" parent="1" source="fncmsdUUiz8E2BPmiftU-16" target="fncmsdUUiz8E2BPmiftU-24" edge="1">
                    <mxGeometry relative="1" as="geometry">
                        <mxPoint x="610" y="590" as="targetPoint"/>
                        <Array as="points">
                            <mxPoint x="530" y="430"/>
                            <mxPoint x="530" y="560"/>
                            <mxPoint x="610" y="560"/>
                        </Array>
                    </mxGeometry>
                </mxCell>
                <mxCell id="fncmsdUUiz8E2BPmiftU-16" value="&lt;div style=&quot;font-family: &amp;#34;consolas&amp;#34; , &amp;#34;courier new&amp;#34; , monospace ; font-size: 14px ; line-height: 19px&quot;&gt;&lt;div&gt;&lt;span style=&quot;background-color: rgb(42 , 42 , 42)&quot;&gt;&amp;nbsp;final isIdSavedLocaly = await _idLocalDataSource.addToWishList(&lt;/span&gt;&lt;/div&gt;&lt;div&gt;&lt;span style=&quot;background-color: rgb(42 , 42 , 42)&quot;&gt;value: WishListID(id:product.id));&lt;/span&gt;&lt;/div&gt;&lt;/div&gt;" style="rounded=0;whiteSpace=wrap;html=1;" parent="1" vertex="1">
                    <mxGeometry x="550" y="390" width="270" height="80" as="geometry"/>
                </mxCell>
                <mxCell id="fncmsdUUiz8E2BPmiftU-25" style="edgeStyle=orthogonalEdgeStyle;rounded=0;orthogonalLoop=1;jettySize=auto;html=1;exitX=0.5;exitY=1;exitDx=0;exitDy=0;" parent="1" source="fncmsdUUiz8E2BPmiftU-17" target="fncmsdUUiz8E2BPmiftU-24" edge="1">
                    <mxGeometry relative="1" as="geometry">
                        <Array as="points">
                            <mxPoint x="410" y="470"/>
                            <mxPoint x="410" y="620"/>
                            <mxPoint x="610" y="620"/>
                        </Array>
                    </mxGeometry>
                </mxCell>
                <mxCell id="fncmsdUUiz8E2BPmiftU-17" value="&lt;div style=&quot;font-family: &amp;#34;consolas&amp;#34; , &amp;#34;courier new&amp;#34; , monospace ; font-size: 14px ; line-height: 19px&quot;&gt;&lt;div&gt;&lt;font color=&quot;#000000&quot; style=&quot;background-color: rgb(42 , 42 , 42)&quot;&gt;final isProductSavedLocaly =await _productLocalDataSource.addToWishList(&lt;/font&gt;&lt;/div&gt;&lt;div&gt;&lt;font color=&quot;#000000&quot; style=&quot;background-color: rgb(42 , 42 , 42)&quot;&gt;value: product);&lt;/font&gt;&lt;/div&gt;&lt;/div&gt;" style="rounded=0;whiteSpace=wrap;html=1;" parent="1" vertex="1">
                    <mxGeometry x="180" y="390" width="310" height="80" as="geometry"/>
                </mxCell>
                <mxCell id="fncmsdUUiz8E2BPmiftU-21" value="&lt;span style=&quot;background-color: rgb(42 , 42 , 42)&quot;&gt;For Local Storage:&lt;br&gt;&lt;span style=&quot;font-family: &amp;#34;consolas&amp;#34; , &amp;#34;courier new&amp;#34; , monospace ; font-size: 14px&quot;&gt;id save to Local Hive DataSource&lt;/span&gt;&lt;/span&gt;" style="rounded=0;whiteSpace=wrap;html=1;" parent="1" vertex="1">
                    <mxGeometry x="551" y="480" width="170" height="60" as="geometry"/>
                </mxCell>
                <mxCell id="fncmsdUUiz8E2BPmiftU-22" value="&lt;span style=&quot;background-color: rgb(42 , 42 , 42)&quot;&gt;For Local Storage:&lt;br&gt;&lt;span style=&quot;font-family: &amp;#34;consolas&amp;#34; , &amp;#34;courier new&amp;#34; , monospace ; font-size: 14px&quot;&gt;to save All Product to Local Hive DataSource&lt;/span&gt;&lt;/span&gt;" style="rounded=0;whiteSpace=wrap;html=1;" parent="1" vertex="1">
                    <mxGeometry x="180" y="480" width="190" height="60" as="geometry"/>
                </mxCell>
                <mxCell id="fncmsdUUiz8E2BPmiftU-30" style="edgeStyle=orthogonalEdgeStyle;rounded=0;orthogonalLoop=1;jettySize=auto;html=1;entryX=0.5;entryY=0;entryDx=0;entryDy=0;" parent="1" source="fncmsdUUiz8E2BPmiftU-24" target="fncmsdUUiz8E2BPmiftU-29" edge="1">
                    <mxGeometry relative="1" as="geometry"/>
                </mxCell>
                <mxCell id="fncmsdUUiz8E2BPmiftU-31" style="edgeStyle=orthogonalEdgeStyle;rounded=0;orthogonalLoop=1;jettySize=auto;html=1;entryX=0.5;entryY=0;entryDx=0;entryDy=0;" parent="1" source="fncmsdUUiz8E2BPmiftU-24" target="fncmsdUUiz8E2BPmiftU-28" edge="1">
                    <mxGeometry relative="1" as="geometry"/>
                </mxCell>
                <mxCell id="fncmsdUUiz8E2BPmiftU-24" value="" style="rhombus;whiteSpace=wrap;html=1;" parent="1" vertex="1">
                    <mxGeometry x="570" y="640" width="80" height="80" as="geometry"/>
                </mxCell>
                <mxCell id="fncmsdUUiz8E2BPmiftU-33" style="edgeStyle=orthogonalEdgeStyle;rounded=0;orthogonalLoop=1;jettySize=auto;html=1;entryX=1;entryY=0.5;entryDx=0;entryDy=0;" parent="1" source="fncmsdUUiz8E2BPmiftU-28" target="fncmsdUUiz8E2BPmiftU-32" edge="1">
                    <mxGeometry relative="1" as="geometry">
                        <Array as="points">
                            <mxPoint x="800" y="935"/>
                        </Array>
                    </mxGeometry>
                </mxCell>
                <mxCell id="fncmsdUUiz8E2BPmiftU-28" value="Right : added To Wish List State&amp;nbsp;" style="rounded=0;whiteSpace=wrap;html=1;" parent="1" vertex="1">
                    <mxGeometry x="690" y="760" width="190" height="60" as="geometry"/>
                </mxCell>
                <mxCell id="fncmsdUUiz8E2BPmiftU-34" style="edgeStyle=orthogonalEdgeStyle;rounded=0;orthogonalLoop=1;jettySize=auto;html=1;entryX=-0.023;entryY=0.633;entryDx=0;entryDy=0;entryPerimeter=0;" parent="1" source="fncmsdUUiz8E2BPmiftU-29" target="fncmsdUUiz8E2BPmiftU-32" edge="1">
                    <mxGeometry relative="1" as="geometry">
                        <Array as="points">
                            <mxPoint x="405" y="947"/>
                        </Array>
                    </mxGeometry>
                </mxCell>
                <mxCell id="fncmsdUUiz8E2BPmiftU-29" value="Left: ErrorIshListState(Failure)" style="rounded=0;whiteSpace=wrap;html=1;" parent="1" vertex="1">
                    <mxGeometry x="310" y="760" width="190" height="60" as="geometry"/>
                </mxCell>
                <mxCell id="fncmsdUUiz8E2BPmiftU-32" value="build the fav Icon::&lt;br&gt;&lt;br&gt;when ever is the&amp;nbsp;&lt;br&gt;value: sl&amp;lt;wishlist&amp;gt;&lt;br&gt;at all different context with&amp;nbsp;" style="rounded=0;whiteSpace=wrap;html=1;" parent="1" vertex="1">
                    <mxGeometry x="540" y="890" width="120" height="90" as="geometry"/>
                </mxCell>
                <mxCell id="fncmsdUUiz8E2BPmiftU-36" value="&lt;h1&gt;&lt;font style=&quot;font-size: 52px&quot;&gt;The First Bloc&lt;/font&gt;&lt;/h1&gt;" style="text;html=1;strokeColor=#b85450;fillColor=#f8cecc;spacing=5;spacingTop=-20;whiteSpace=wrap;overflow=hidden;rounded=0;" parent="1" vertex="1">
                    <mxGeometry x="870" y="20" width="360" height="80" as="geometry"/>
                </mxCell>
            </root>
        </mxGraphModel>
    </diagram>
</mxfile>